<svg width="25" height="25" viewBox="0 0 25 25" fill="none" xmlns="http://www.w3.org/2000/svg">
<g clip-path="url(#clip0_39_4)">
<path d="M11.5004 21.0616H3.50037C2.96993 21.0616 2.46123 20.8508 2.08615 20.4758C1.71108 20.1007 1.50037 19.592 1.50037 19.0616V10.0616M1.50037 10.0616H19.5004M1.50037 10.0616V6.06155C1.50037 5.53112 1.71108 5.02241 2.08615 4.64734C2.46123 4.27227 2.96993 4.06155 3.50037 4.06155H5.50037M19.5004 10.0616V13.0616M19.5004 10.0616V6.06155C19.5004 5.53112 19.2897 5.02241 18.9146 4.64734C18.5395 4.27227 18.0308 4.06155 17.5004 4.06155H17.0004M13.5004 4.06155V2.06155M13.5004 4.06155V6.06155M13.5004 4.06155H9.00037M5.50037 2.06155V6.06155M13.4924 18.0616H16.4924M16.4924 18.0616H19.5004M16.4924 18.0616V15.0616M16.4924 18.0616V21.0616" stroke="#C2C2C2" stroke-width="1.5" stroke-linecap="round" stroke-linejoin="round"/>
</g>
<defs>
<clipPath id="clip0_39_4">
<rect width="24" height="24" fill="white" transform="translate(0.500366 0.061554)"/>
</clipPath>
</defs>
</svg>
