<svg width="25" height="25" viewBox="0 0 25 25" fill="none" xmlns="http://www.w3.org/2000/svg">
<path d="M18.9165 9.27208C18.37 8.02047 17.4702 6.95548 16.3274 6.2076C15.1847 5.45971 13.8486 5.06143 12.4828 5.06155C8.84423 5.06155 5.85124 7.83138 5.50037 11.3773" stroke="#C2C2C2" stroke-width="1.2" stroke-linecap="round" stroke-linejoin="round"/>
<path d="M15.9916 9.27208H19.0793C19.1346 9.27208 19.1893 9.26119 19.2404 9.24003C19.2915 9.21887 19.3379 9.18785 19.377 9.14875C19.4161 9.10966 19.4471 9.06324 19.4683 9.01215C19.4894 8.96107 19.5003 8.90632 19.5003 8.85102V5.76331M6.0835 14.8861C7.167 17.3647 9.63999 19.0966 12.5172 19.0966C16.1565 19.0966 19.1488 16.3268 19.5003 12.7808" stroke="#C2C2C2" stroke-width="1.2" stroke-linecap="round" stroke-linejoin="round"/>
<path d="M9.00914 14.8861H5.92142C5.80975 14.8861 5.70265 14.9305 5.62369 15.0095C5.54473 15.0884 5.50037 15.1955 5.50037 15.3072V18.3949" stroke="#C2C2C2" stroke-width="1.2" stroke-linecap="round" stroke-linejoin="round"/>
</svg>
