<svg width="25" height="25" viewBox="0 0 25 25" fill="none" xmlns="http://www.w3.org/2000/svg">
<g clip-path="url(#clip0_254_20)">
<path d="M5.50037 12.5657C5.51438 8.50589 8.81208 5.22377 12.8718 5.22897C14.8647 5.22426 16.7746 6.02797 18.1645 7.45624V4.88583C18.1658 4.51877 18.463 4.22159 18.8299 4.22061C19.1983 4.22012 19.4976 4.51822 19.4984 4.88655V10.063H14.2979C13.9292 10.0637 13.6297 9.76562 13.6289 9.3971C13.6297 9.02857 13.9292 8.73048 14.2979 8.73116H17.5136C16.3661 7.35194 14.6638 6.55618 12.8698 6.5606C9.54768 6.55746 6.84935 9.2429 6.83666 12.5653C6.84911 15.8877 9.54744 18.5735 12.8698 18.5704C14.8731 18.5728 16.7472 17.5813 17.8728 15.9241C18.0804 15.619 18.4954 15.539 18.8015 15.7451C18.9486 15.8435 19.0502 15.9963 19.0839 16.1701C19.1176 16.3436 19.0807 16.5235 18.9813 16.6695C17.6071 18.6949 15.3176 19.9069 12.8698 19.9039C8.81034 19.9077 5.51355 16.6249 5.50037 12.5657Z" fill="#C2C2C2"/>
</g>
<defs>
<clipPath id="clip0_254_20">
<rect width="14" height="16" fill="white" transform="translate(5.50037 4.06155)"/>
</clipPath>
</defs>
</svg>
