<svg width="25" height="25" viewBox="0 0 25 25" fill="none" xmlns="http://www.w3.org/2000/svg">
<path d="M7.71896 10.2768C7.42247 10.3062 6.88856 10.3062 6.59207 10.3062V8.98073H7.60021C7.74848 8.98073 7.89666 9.0101 8.04493 9.0101C8.04493 8.98073 8.01541 8.92183 8.01541 8.89222C8.01541 8.86289 8.04493 8.80418 8.04493 8.77433C7.89666 8.77433 7.74844 8.80394 7.60021 8.80394H6.59207V7.65511H7.21487L7.71896 7.68473C7.86724 7.68473 8.01541 7.71372 8.16368 7.71372C8.16368 7.68473 8.13383 7.62545 8.13383 7.59641C8.13383 7.53746 8.16368 7.50814 8.16368 7.44919H6.14677V10.5129H8.19325C8.19325 10.4832 8.16373 10.4248 8.16373 10.395C8.16373 10.3361 8.19325 10.3066 8.19325 10.2477C8.04498 10.2771 7.86724 10.2771 7.71896 10.2771M11.8712 7.44895H11.6928V10.5417C11.7227 10.5124 11.7818 10.5124 11.8414 10.5124C11.8713 10.5124 11.9302 10.5124 11.9595 10.5417V8.09681H12.0189L14.1838 10.2472C14.302 10.3646 14.3911 10.4531 14.4507 10.5414H14.5992V7.44866C14.5396 7.44866 14.5101 7.47799 14.4507 7.47799C14.3913 7.47799 14.3618 7.44866 14.3022 7.44866V9.77561H14.2732L11.8712 7.44895ZM5.67224 10.0413C5.58364 10.1293 5.16815 10.3947 4.60444 10.3947C3.8337 10.3947 3.27023 9.8647 3.27023 8.98073C3.27023 8.2446 3.71471 7.56684 4.63429 7.56684C5.16786 7.56684 5.52373 7.86127 5.61292 7.94983H5.64244C5.67196 7.83194 5.70157 7.71401 5.73138 7.59641C5.40527 7.47852 5.01964 7.39025 4.66381 7.39025C3.59596 7.39025 2.76556 7.97945 2.76556 8.98102C2.76556 9.95306 3.44754 10.5713 4.54516 10.5713C4.93031 10.5713 5.3457 10.5129 5.64215 10.3357L5.67224 10.0413ZM9.08298 8.86284V7.62574C9.29029 7.62574 9.85405 7.59665 10.0321 7.62574C10.4175 7.68473 10.5956 7.89089 10.5956 8.18508C10.5956 8.5385 10.3289 8.77428 9.94343 8.83332C9.70607 8.89193 9.17212 8.86231 9.08327 8.86231M11.0704 10.1589L10.0321 8.98073C10.5359 8.92207 11.0704 8.65697 11.0704 8.12671C11.0704 7.68521 10.7145 7.44948 9.94343 7.44948H8.66807V10.5422C8.75696 10.5129 8.81629 10.5129 8.90548 10.5129C8.96456 10.5129 9.05346 10.5129 9.11279 10.5422V9.04001H9.5277L9.91338 9.45233L10.5061 10.1295C10.6248 10.2768 10.7136 10.3947 10.8324 10.5417C10.921 10.5124 11.0099 10.5124 11.1288 10.5124C11.2175 10.5124 11.3063 10.5124 11.3955 10.5417L11.3066 10.4243L11.0704 10.1589ZM8.21274 16.9452C7.88783 16.8986 7.56911 16.8311 7.25687 16.7463C8.04743 17.5205 9.00109 18.1222 10.0594 18.495L10.4199 18.1026C9.61612 17.8456 8.86856 17.4545 8.21274 16.9458M6.56821 6.7243L7.18612 6.7291C7.96098 5.7305 9.94996 4.25038 12.6178 4.25038C13.1981 4.25038 13.7618 4.32089 14.3022 4.45121C14.09 4.23127 13.8636 4.02506 13.6235 3.83479C13.2945 3.79164 12.9593 3.76692 12.6181 3.76692C10.2321 3.76692 8.02679 4.84471 6.56845 6.72401M12.6181 18.4488C12.2769 18.4488 11.9421 18.4195 11.6118 18.3732L11.2191 18.8014C11.6744 18.8851 12.1416 18.9319 12.6184 18.9319C14.7882 18.9319 16.7476 18.0272 18.1389 16.5792L18.0048 16.009C16.6936 17.5021 14.7656 18.4488 12.6184 18.4488M18.9849 15.528C19.6065 14.597 20.0236 13.5221 20.1805 12.3661L20.2136 12.3706L21.4397 3.66794L20.9575 3.60089L20.0859 9.78852C19.5721 7.36087 17.8877 5.35644 15.6456 4.39063C15.8462 4.65089 16.0302 4.9241 16.1968 5.2086C18.3284 6.43874 19.7659 8.72988 19.7659 11.3497C19.7659 12.6258 19.4232 13.8234 18.8273 14.8591L18.9849 15.528ZM5.47036 11.3497L5.47194 11.1828L4.98551 11.1723L4.98354 11.3497C4.98354 11.9766 5.06058 12.5997 5.21312 13.2021C5.38333 13.8755 5.6446 14.5067 5.97575 15.0888C6.24244 15.2382 6.52026 15.3679 6.80672 15.4809C6.29725 14.7738 5.90826 13.9682 5.68472 13.0842C5.54245 12.5206 5.47007 11.937 5.47007 11.3497M16.4983 9.15737C16.4983 13.0719 13.2916 16.2564 9.35024 16.2564C6.06685 16.2564 3.2158 14.0505 2.41708 10.8921C2.2748 10.3283 2.20242 9.74465 2.20242 9.15766C2.20242 5.2434 5.40887 2.05855 9.35024 2.05855C13.2916 2.05855 16.4983 5.24311 16.4983 9.15766M9.3502 1.57486C5.14074 1.57486 1.71599 4.97609 1.71599 9.15708C1.71599 9.78391 1.79288 10.4066 1.94519 11.0093C1.96122 11.0728 1.98316 11.1333 2.00077 11.1964L1.99693 11.1968L3.9106 18.0001L4.37917 17.8698L3.18618 13.6285C4.58975 15.538 6.85007 16.739 9.34996 16.739C10.603 16.739 11.7858 16.4359 12.8303 15.9018L6.72844 22.5482H7.387L14.9908 14.2656L14.9884 14.2631C16.0191 13.1418 16.7134 11.7123 16.9189 10.1322L19.8387 22.5485H20.3385L16.7839 7.43225L16.7825 7.43244C16.2001 4.95473 14.3922 2.9406 12.0291 2.05769H23.316V1.57462" fill="#0033A0"/>
</svg>
