<svg width="25" height="25" viewBox="0 0 25 25" fill="none" xmlns="http://www.w3.org/2000/svg">
<path d="M6.18005 6.53812C5.99646 6.58109 6.11365 6.57327 5.9613 6.5928C5.30896 6.73343 5.79334 6.85843 6.18005 6.53812ZM17.6527 6.79984C17.6996 6.76859 17.8636 6.60843 17.3519 6.45218C17.3832 6.61234 17.2465 6.59671 17.2465 6.68655C17.6254 7.0303 17.7816 7.62796 18.266 7.75296C18.3597 7.32327 17.8363 7.11234 17.6527 6.79984ZM5.8324 6.41312C5.89099 6.76077 6.15271 6.04593 6.15662 5.79202C6.05505 5.85062 5.95349 5.90921 5.84802 5.95609C6.09412 6.08109 5.87927 6.2139 5.61365 6.41312C5.07458 7.08499 6.11755 5.88968 5.8324 6.41312ZM12.516 2.06155C6.99255 2.06155 2.51599 6.53812 2.51599 12.0616C2.51599 17.5811 6.99255 22.0616 12.516 22.0616C18.0394 22.0616 22.516 17.5811 22.516 12.0616C22.516 6.53812 18.0394 2.06155 12.516 2.06155ZM12.7816 5.41312L12.8285 5.42874C12.641 5.67093 13.8051 6.37796 12.9691 6.43655C12.1879 6.65921 13.2972 6.23343 12.6918 6.30765C13.0121 5.86234 12.4379 5.85452 12.7816 5.41312ZM8.03943 6.05374C7.75818 5.81937 6.87537 6.37405 7.18396 6.24124C7.94958 5.94046 7.23474 6.27249 7.41443 6.63187C7.25037 6.97171 7.35974 6.29593 6.95349 6.69827C6.66052 6.76468 5.94177 7.42874 6.03162 7.22562C6.00818 7.54202 5.17615 7.91702 5.06287 8.44437C4.78943 9.17484 4.99646 8.41702 4.94568 8.13187C4.55505 7.63577 3.84412 8.97171 4.05505 9.49905C4.41052 8.87405 4.38318 9.43265 4.12537 9.70999C4.38708 10.1905 3.88708 10.8155 4.38318 11.1709C4.60193 11.2217 5.03943 10.4366 4.84802 11.253C4.98083 10.5459 5.21521 11.4209 5.59412 11.2256C5.61755 11.5967 5.84802 11.4248 5.8988 11.8741C6.53162 11.8272 7.10974 12.8975 6.35583 13.1006C6.46912 13.0694 6.69177 13.2686 6.94958 13.1162C7.38708 13.4639 8.53943 13.5069 8.57068 14.3662C7.77771 14.7451 8.37537 15.7842 7.68787 16.1553C6.8988 16.0381 7.41833 17.128 7.0863 17.003C7.21912 17.7881 6.28943 16.9014 6.6488 17.335C7.30896 17.7412 6.35974 17.6592 6.65662 17.9561C6.32458 17.8858 6.86365 18.5733 6.95349 18.8272C7.43005 19.6006 6.54333 18.6553 6.28162 18.3975C6.03162 17.8975 5.44177 16.9405 5.27771 16.1553C5.18396 15.0147 4.30115 14.2491 4.09802 13.1358C3.8949 12.5147 4.65662 11.5186 4.24646 11.1709C3.89099 10.8936 4.03552 9.94437 3.82458 9.44437C4.35193 7.15921 6.02771 5.23343 8.03943 4.0928C7.8324 4.24515 9.22302 3.69827 9.06287 3.83109C9.0199 3.92874 9.87537 3.45999 10.391 3.38968C10.3363 3.39749 9.05115 3.85843 9.40662 3.79593C8.85583 4.06546 9.35193 3.91312 9.62537 3.7764C9.07849 4.17874 8.65662 4.06546 8.03552 4.42093C7.41052 4.58499 7.53943 5.23343 7.09412 5.55765C7.35583 5.60452 8.01208 4.88187 8.3949 4.62796C9.2738 4.20218 7.94958 5.4014 8.78552 4.88577C8.50427 5.14749 8.56287 5.56546 8.39099 5.68265C8.30505 5.65921 8.73083 5.88577 8.03943 6.05374ZM9.40662 4.25687C9.31677 4.37796 9.19177 4.63968 9.11755 4.47952C9.01599 4.5303 8.97693 4.74905 8.78552 4.57327C8.8988 4.49124 9.01599 4.29593 8.79333 4.41702C8.8949 4.30765 9.80115 3.99905 9.75037 3.88187C9.91052 3.7803 9.8949 3.72952 9.7113 3.79202C9.61755 3.76077 9.93396 3.49515 10.3558 3.45999C10.4144 3.45999 10.4379 3.49905 10.3324 3.48734C9.69568 3.68265 9.96912 3.62796 10.3988 3.48734C10.2347 3.58109 10.1215 3.60843 10.0941 3.6514C10.5238 3.49515 10.0707 3.76468 10.1683 3.74515C10.0472 3.80765 10.1879 3.82718 9.95349 3.91702C9.99646 3.88187 9.57068 4.17093 9.82458 4.08499C9.57849 4.31937 9.46912 4.32327 9.40662 4.25687ZM9.78162 4.81546C9.78943 4.44046 10.3285 4.20218 10.2621 4.18265C10.9261 3.87015 10.0316 4.19437 10.5551 3.91312C10.7504 3.89359 11.1644 3.26859 11.7386 3.22952C12.3715 3.03812 12.0785 3.24124 12.5472 3.06155L12.4535 3.13968C12.3715 3.1514 12.473 3.29593 12.1761 3.51468C12.1449 3.85452 11.6097 3.69827 11.8754 4.06155C11.7035 3.81546 11.4457 4.05374 11.7699 4.07718C11.4222 4.3428 10.6136 4.38968 10.2269 4.83109C9.97693 5.19046 9.74646 5.07718 9.78162 4.81546ZM12.559 6.06546C12.2933 6.70609 12.0355 5.97171 12.5043 5.85452C12.6215 5.91702 12.6683 5.93655 12.559 6.06546ZM11.559 4.78421C11.4808 4.49515 11.5433 4.64749 12.0082 4.51077C12.3285 4.74124 11.723 4.89358 11.559 4.78421ZM18.8324 16.2491C18.4652 15.6162 19.2777 15.0303 19.5511 14.4991C19.516 15.1201 19.4379 15.7334 18.8324 16.2491ZM20.2152 9.01859C19.8168 9.04984 19.4574 9.14359 19.098 8.91702C18.2699 8.01077 19.2504 9.94046 19.5238 9.1514C20.5082 9.5264 19.5082 11.1436 18.8871 10.9756C18.5394 10.2256 18.1097 9.4014 17.3519 9.03421C17.934 9.67874 18.223 10.4717 18.848 11.0537C18.891 11.8662 19.7152 10.7569 19.6644 11.3858C19.7426 12.4678 18.4418 13.1162 18.6683 14.2022C19.1527 15.1905 17.7347 15.3701 17.8949 16.2569C17.3246 16.8936 16.7152 17.753 15.6918 17.6162C15.6918 17.0772 15.4183 16.6201 15.3558 16.0655C14.8011 15.3623 15.9418 14.6084 15.2347 13.8741C14.4183 13.6905 15.4027 12.5655 14.5629 12.6709C14.059 12.167 13.3207 12.6553 12.598 12.6592C11.6918 12.7451 10.7582 11.5459 11.1605 10.6983C10.8402 9.81546 12.1761 9.55765 12.2113 8.7803C12.8519 8.24515 13.7621 8.31155 14.6293 8.18655C14.5668 8.80765 15.223 8.81155 15.7191 9.01859C15.9965 8.34671 16.8597 9.12796 17.4496 8.70218C17.6527 7.70999 16.8754 8.30765 16.4301 7.99124C15.891 7.20218 17.5824 7.58499 17.4066 7.17093C16.7504 7.16702 17.1215 6.36234 16.6566 6.81155C17.0746 6.88577 16.5824 7.2139 16.5941 6.8389C15.9613 6.6553 16.5707 7.55765 16.2504 7.64359C15.7621 7.44046 15.9926 7.87405 16.0433 7.94046C15.8324 8.39749 15.5746 7.26859 14.9769 7.29984C14.3832 6.75687 14.7426 7.54593 15.2582 7.67484C15.1488 7.70609 15.3207 8.1553 15.184 7.9639C14.7582 7.37796 13.9496 6.98734 13.4691 7.70609C13.4183 8.37796 12.0511 8.56937 12.2699 7.78421C11.9496 6.97171 13.2621 7.76077 13.141 7.11234C12.2972 6.55374 13.3715 6.73343 13.6566 6.20999C14.3051 6.22952 13.684 5.67874 13.9886 5.51859C13.9574 6.11624 14.4847 6.00296 14.9027 5.88968C14.8011 5.54593 15.1527 5.55765 14.9379 5.27249C15.9066 4.88577 14.1996 5.45218 14.5433 4.60452C14.1254 4.31546 14.3676 5.24124 14.5433 5.3389C14.5551 5.62405 14.3129 5.97562 13.9808 5.37796C13.4965 5.69437 13.5472 5.05765 13.516 5.12405C13.4613 4.87796 13.8832 4.86624 13.8871 4.43655C13.8519 4.16312 13.8597 4.01859 14.0551 4.00296C14.0707 4.04202 14.8558 4.05374 15.1332 4.37796C14.3754 4.22562 15.0199 4.50296 15.3597 4.65921C14.9965 4.37405 15.5043 4.65921 15.2074 4.33499C15.3246 4.35843 14.8832 3.88968 15.3363 4.29984C15.0902 4.00687 15.8168 4.0928 15.3871 3.87405C16.016 4.04984 15.6449 3.88968 15.2738 3.72952C14.2504 3.12015 17.0824 4.55374 15.9261 3.91702C16.6644 4.07718 14.348 3.34671 15.4027 3.66702C15.0004 3.49124 15.391 3.5889 15.7543 3.70218C15.1019 3.49905 14.1254 3.12015 14.1644 3.10452C14.391 3.12015 14.6136 3.17093 14.8285 3.23343C15.4965 3.43265 14.6371 3.18655 14.8207 3.19046C17.1176 3.7803 19.1293 5.31937 20.3519 7.33109C20.6371 7.63187 21.4144 9.62015 21.0082 8.73734C21.1918 9.44046 21.2191 10.1983 21.3168 10.917C21.1136 10.6905 20.8871 9.85452 20.6918 9.38968C20.6097 9.56937 20.516 9.13577 20.2152 9.01859Z" fill="#505050"/>
</svg>
