<svg width="25" height="25" viewBox="0 0 25 25" fill="none" xmlns="http://www.w3.org/2000/svg">
<path d="M3.01599 20.0616C4.01599 20.0616 5.01599 19.2616 5.01599 18.0616V11.0616C5.01599 7.56155 8.11599 4.06155 12.516 4.06155C16.916 4.06155 20.016 7.56155 20.016 11.0616V18.0616C20.016 19.2616 21.016 20.0616 22.016 20.0616" stroke="#505050" stroke-width="1.5" stroke-linecap="round"/>
<path d="M12.516 19.0616C15.277 19.0616 17.516 17.9416 17.516 16.5616C17.516 15.1816 15.277 14.0616 12.516 14.0616C9.75499 14.0616 7.51599 15.1816 7.51599 16.5616C7.51599 17.9416 9.75499 19.0616 12.516 19.0616Z" stroke="#505050" stroke-width="1.5" stroke-linecap="round" stroke-linejoin="round"/>
<path d="M8.26599 15.0616C7.80299 14.4266 7.51599 13.5416 7.51599 12.5616C7.51599 10.6286 8.63599 9.06155 10.016 9.06155C11.396 9.06155 12.516 10.6286 12.516 12.5616M12.516 12.5616C12.516 13.0166 12.454 13.4516 12.341 13.8516M12.516 12.5616C12.516 10.6286 13.636 9.06155 15.016 9.06155C16.396 9.06155 17.516 10.6286 17.516 12.5616C17.516 13.5416 17.229 14.4266 16.766 15.0616M12.516 12.5616C12.516 13.0166 12.578 13.4516 12.691 13.8516M10.016 12.0616V14.0616M15.016 12.0616V14.0616" stroke="#505050" stroke-width="1.5" stroke-linecap="round" stroke-linejoin="round"/>
</svg>
