<svg width="25" height="25" viewBox="0 0 25 25" fill="none" xmlns="http://www.w3.org/2000/svg">
<path d="M4.51599 12.0615H20.516M11.016 5.56154V18.5615M4.51599 17.0475V7.07554C4.51593 6.93249 4.56699 6.79412 4.65995 6.68539C4.75291 6.57666 4.88167 6.50472 5.02299 6.48254L19.823 4.16954C19.9086 4.15611 19.9961 4.16139 20.0795 4.18501C20.1629 4.20864 20.2402 4.25006 20.3061 4.30641C20.3719 4.36277 20.4248 4.43272 20.461 4.51147C20.4973 4.59021 20.516 4.67587 20.516 4.76254V19.3605C20.516 19.4472 20.4973 19.5329 20.461 19.6116C20.4248 19.6904 20.3719 19.7603 20.3061 19.8167C20.2402 19.873 20.1629 19.9144 20.0795 19.9381C19.9961 19.9617 19.9086 19.967 19.823 19.9535L5.02299 17.6405C4.88167 17.6184 4.75291 17.5464 4.65995 17.4377C4.56699 17.329 4.51593 17.1906 4.51599 17.0475Z" stroke="#505050" stroke-width="1.5"/>
</svg>
