<svg width="25" height="25" viewBox="0 0 25 25" fill="none" xmlns="http://www.w3.org/2000/svg">
<g clip-path="url(#clip0_394_467)">
<path d="M5.51599 12.5657C5.53001 8.50589 8.82771 5.22377 12.8875 5.22897C14.8803 5.22426 16.7903 6.02797 18.1801 7.45624V4.88583C18.1814 4.51877 18.4786 4.22159 18.8456 4.22061C19.2139 4.22012 19.5132 4.51822 19.514 4.88655V10.063H14.3135C13.9448 10.0637 13.6453 9.76562 13.6446 9.3971C13.6453 9.02857 13.9448 8.73048 14.3135 8.73116H17.5293C16.3817 7.35194 14.6794 6.55618 12.8854 6.5606C9.56331 6.55746 6.86498 9.2429 6.85229 12.5653C6.86473 15.8877 9.56306 18.5735 12.8854 18.5704C14.8887 18.5728 16.7629 17.5813 17.8884 15.9241C18.096 15.619 18.511 15.539 18.8171 15.7451C18.9642 15.8435 19.0658 15.9963 19.0996 16.1701C19.1332 16.3436 19.0963 16.5235 18.9969 16.6695C17.6227 18.6949 15.3332 19.9069 12.8854 19.9039C8.82597 19.9077 5.52917 16.6249 5.51599 12.5657Z" fill="#505050"/>
</g>
<defs>
<clipPath id="clip0_394_467">
<rect width="14" height="16" fill="white" transform="translate(5.51599 4.06155)"/>
</clipPath>
</defs>
</svg>
