<svg width="25" height="25" viewBox="0 0 25 25" fill="none" xmlns="http://www.w3.org/2000/svg">
<path d="M18.9321 9.27208C18.3856 8.02047 17.4858 6.95548 16.3431 6.2076C15.2003 5.45971 13.8642 5.06143 12.4984 5.06155C8.85985 5.06155 5.86687 7.83138 5.51599 11.3773" stroke="#505050" stroke-width="1.2" stroke-linecap="round" stroke-linejoin="round"/>
<path d="M16.0072 9.27209H19.0949C19.1502 9.27209 19.205 9.2612 19.2561 9.24004C19.3072 9.21888 19.3536 9.18787 19.3927 9.14877C19.4318 9.10967 19.4628 9.06325 19.4839 9.01217C19.5051 8.96109 19.516 8.90633 19.516 8.85104V5.76332M6.09915 14.8861C7.18266 17.3647 9.65564 19.0967 12.5328 19.0967C16.1721 19.0967 19.1644 16.3268 19.516 12.7809" stroke="#505050" stroke-width="1.2" stroke-linecap="round" stroke-linejoin="round"/>
<path d="M9.02476 14.8861H5.93704C5.82537 14.8861 5.71828 14.9305 5.63931 15.0095C5.56035 15.0884 5.51599 15.1955 5.51599 15.3072V18.3949" stroke="#505050" stroke-width="1.2" stroke-linecap="round" stroke-linejoin="round"/>
</svg>
