<svg width="25" height="25" viewBox="0 0 25 25" fill="none" xmlns="http://www.w3.org/2000/svg">
<g clip-path="url(#clip0_394_598)">
<path d="M2.73433 15.8133L6.4838 18.313L2.73433 20.8122V15.8133ZM20.9093 18.887L15.8583 13.8341L10.8073 18.887C10.6553 19.0393 10.4487 19.1248 10.2333 19.1244C10.0179 19.1248 9.81139 19.0393 9.65922 18.887C9.50657 18.7345 9.42071 18.5279 9.42071 18.3121C9.42071 18.0963 9.50657 17.8898 9.65922 17.7372L14.7102 12.686L9.65922 7.63491C9.50657 7.48268 9.42071 7.27631 9.42071 7.06087C9.42071 6.84525 9.50657 6.63869 9.65922 6.48683C9.81139 6.33461 10.0179 6.24862 10.2333 6.24862C10.4487 6.24862 10.6553 6.33461 10.8073 6.48683L15.8583 11.5359L20.9093 6.48683C21.0617 6.33418 21.2683 6.24862 21.4839 6.24862C21.6994 6.24862 21.9061 6.33418 22.0585 6.48683C22.2114 6.63869 22.2974 6.84525 22.2974 7.06087C22.2974 7.27631 22.2114 7.48268 22.0585 7.63491L17.0076 12.686L22.0585 17.7372C22.2111 17.8894 22.2971 18.0963 22.2971 18.3121C22.2971 18.5279 22.2111 18.7348 22.0585 18.887C21.9057 19.0387 21.699 19.1242 21.4833 19.1244C21.2684 19.1242 21.0616 19.0387 20.9093 18.887ZM2.73433 9.56211L6.4838 12.0625L2.73433 14.5604V9.56211ZM2.73433 3.31155L6.4838 5.81249L2.73433 8.31224V3.31155Z" fill="#505050"/>
</g>
<defs>
<clipPath id="clip0_394_598">
<rect width="20" height="17.5" fill="white" transform="translate(2.51599 3.31155)"/>
</clipPath>
</defs>
</svg>
