<svg width="25" height="25" viewBox="0 0 25 25" fill="none" xmlns="http://www.w3.org/2000/svg">
<g clip-path="url(#clip0_394_49)">
<path d="M1.51599 18.0616V4.06155C1.51599 3.53112 1.7267 3.02241 2.10178 2.64734C2.47685 2.27227 2.98556 2.06155 3.51599 2.06155H19.516C20.0464 2.06155 20.5551 2.27227 20.9302 2.64734C21.3053 3.02241 21.516 3.53112 21.516 4.06155V18.0616C21.516 18.592 21.3053 19.1007 20.9302 19.4758C20.5551 19.8508 20.0464 20.0616 19.516 20.0616H3.51599C2.98556 20.0616 2.47685 19.8508 2.10178 19.4758C1.7267 19.1007 1.51599 18.592 1.51599 18.0616Z" stroke="#505050" stroke-width="1.5"/>
<path d="M1.51599 6.06155H21.516M8.51599 13.0616H11.516M11.516 13.0616H14.516M11.516 13.0616V10.0616M11.516 13.0616V16.0616" stroke="#505050" stroke-width="1.5" stroke-linecap="round" stroke-linejoin="round"/>
</g>
<defs>
<clipPath id="clip0_394_49">
<rect width="24" height="24" fill="white" transform="translate(0.515991 0.061554)"/>
</clipPath>
</defs>
</svg>
