<svg width="25" height="25" viewBox="0 0 25 25" fill="none" xmlns="http://www.w3.org/2000/svg">
<path d="M7.70335 10.2768C7.40686 10.3062 6.87295 10.3062 6.57646 10.3062V8.98073H7.5846C7.73287 8.98073 7.88105 9.0101 8.02932 9.0101C8.02932 8.98073 7.9998 8.92183 7.9998 8.89222C7.9998 8.86289 8.02932 8.80418 8.02932 8.77433C7.88105 8.77433 7.73283 8.80394 7.5846 8.80394H6.57646V7.65511H7.19926L7.70335 7.68473C7.85163 7.68473 7.9998 7.71372 8.14807 7.71372C8.14807 7.68473 8.11822 7.62545 8.11822 7.59641C8.11822 7.53746 8.14807 7.50814 8.14807 7.44919H6.13116V10.5129H8.17764C8.17764 10.4832 8.14812 10.4248 8.14812 10.395C8.14812 10.3361 8.17764 10.3066 8.17764 10.2477C8.02937 10.2771 7.85163 10.2771 7.70335 10.2771M11.8556 7.44895H11.6772V10.5417C11.7071 10.5124 11.7662 10.5124 11.8258 10.5124C11.8556 10.5124 11.9146 10.5124 11.9439 10.5417V8.09681H12.0033L14.1682 10.2472C14.2864 10.3646 14.3755 10.4531 14.4351 10.5414H14.5836V7.44866C14.524 7.44866 14.4945 7.47799 14.4351 7.47799C14.3757 7.47799 14.3462 7.44866 14.2866 7.44866V9.77561H14.2576L11.8556 7.44895ZM5.65663 10.0413C5.56803 10.1293 5.15254 10.3947 4.58883 10.3947C3.81809 10.3947 3.25462 9.8647 3.25462 8.98073C3.25462 8.2446 3.6991 7.56684 4.61868 7.56684C5.15225 7.56684 5.50812 7.86127 5.59731 7.94983H5.62683C5.65635 7.83194 5.68596 7.71401 5.71577 7.59641C5.38966 7.47852 5.00403 7.39025 4.6482 7.39025C3.58035 7.39025 2.74995 7.97945 2.74995 8.98102C2.74995 9.95306 3.43193 10.5713 4.52955 10.5713C4.9147 10.5713 5.33009 10.5129 5.62654 10.3357L5.65663 10.0413ZM9.06737 8.86284V7.62574C9.27468 7.62574 9.83844 7.59665 10.0165 7.62574C10.4019 7.68473 10.5799 7.89089 10.5799 8.18508C10.5799 8.5385 10.3133 8.77428 9.92782 8.83332C9.69046 8.89193 9.15651 8.86231 9.06766 8.86231M11.0548 10.1589L10.0165 8.98073C10.5203 8.92207 11.0548 8.65697 11.0548 8.12671C11.0548 7.68521 10.6989 7.44948 9.92782 7.44948H8.65246V10.5422C8.74135 10.5129 8.80068 10.5129 8.88987 10.5129C8.94895 10.5129 9.03785 10.5129 9.09718 10.5422V9.04001H9.51209L9.89777 9.45233L10.4905 10.1295C10.6092 10.2768 10.698 10.3947 10.8168 10.5417C10.9054 10.5124 10.9943 10.5124 11.1132 10.5124C11.2019 10.5124 11.2907 10.5124 11.3799 10.5417L11.291 10.4243L11.0548 10.1589ZM8.19713 16.9452C7.87222 16.8986 7.5535 16.8311 7.24126 16.7463C8.03182 17.5205 8.98548 18.1222 10.0438 18.495L10.4043 18.1026C9.60051 17.8456 8.85295 17.4545 8.19713 16.9458M6.5526 6.7243L7.17051 6.7291C7.94537 5.7305 9.93435 4.25038 12.6022 4.25038C13.1825 4.25038 13.7462 4.32089 14.2866 4.45121C14.0744 4.23127 13.848 4.02506 13.6079 3.83479C13.2789 3.79164 12.9437 3.76692 12.6025 3.76692C10.2165 3.76692 8.01118 4.84471 6.55284 6.72401M12.6025 18.4488C12.2612 18.4488 11.9265 18.4195 11.5962 18.3732L11.2035 18.8014C11.6588 18.8851 12.126 18.9319 12.6028 18.9319C14.7726 18.9319 16.732 18.0272 18.1233 16.5792L17.9892 16.009C16.678 17.5021 14.75 18.4488 12.6028 18.4488M18.9692 15.528C19.5909 14.597 20.008 13.5221 20.1649 12.3661L20.198 12.3706L21.4241 3.66794L20.9419 3.60089L20.0703 9.78852C19.5565 7.36087 17.8721 5.35644 15.63 4.39063C15.8306 4.65089 16.0146 4.9241 16.1812 5.2086C18.3128 6.43874 19.7502 8.72988 19.7502 11.3497C19.7502 12.6258 19.4076 13.8234 18.8117 14.8591L18.9692 15.528ZM5.45475 11.3497L5.45633 11.1828L4.9699 11.1723L4.96793 11.3497C4.96793 11.9766 5.04497 12.5997 5.19751 13.2021C5.36772 13.8755 5.62899 14.5067 5.96014 15.0888C6.22683 15.2382 6.50465 15.3679 6.79111 15.4809C6.28164 14.7738 5.89265 13.9682 5.66911 13.0842C5.52684 12.5206 5.45446 11.937 5.45446 11.3497M16.4826 9.15737C16.4826 13.0719 13.276 16.2564 9.33463 16.2564C6.05124 16.2564 3.20019 14.0505 2.40147 10.8921C2.25919 10.3283 2.18681 9.74465 2.18681 9.15766C2.18681 5.2434 5.39326 2.05855 9.33463 2.05855C13.276 2.05855 16.4826 5.24311 16.4826 9.15766M9.33459 1.57486C5.12513 1.57486 1.70038 4.97609 1.70038 9.15708C1.70038 9.78391 1.77727 10.4066 1.92958 11.0093C1.94561 11.0728 1.96755 11.1333 1.98516 11.1964L1.98132 11.1968L3.89499 18.0001L4.36356 17.8698L3.17057 13.6285C4.57414 15.538 6.83446 16.739 9.33435 16.739C10.5874 16.739 11.7702 16.4359 12.8147 15.9018L6.71283 22.5482H7.37139L14.9752 14.2656L14.9728 14.2631C16.0035 13.1418 16.6978 11.7123 16.9033 10.1322L19.8231 22.5485H20.3229L16.7683 7.43225L16.7669 7.43244C16.1845 4.95473 14.3766 2.9406 12.0135 2.05769H23.3004V1.57462" fill="#0033A0"/>
</svg>
