<svg width="25" height="25" viewBox="0 0 25 25" fill="none" xmlns="http://www.w3.org/2000/svg">
<path d="M6.16443 6.53812C5.98084 6.58109 6.09802 6.57327 5.94568 6.5928C5.29333 6.73343 5.77771 6.85843 6.16443 6.53812ZM17.6371 6.79984C17.684 6.76859 17.848 6.60843 17.3363 6.45218C17.3676 6.61234 17.2308 6.59671 17.2308 6.68655C17.6097 7.0303 17.766 7.62796 18.2504 7.75296C18.3441 7.32327 17.8207 7.11234 17.6371 6.79984ZM5.81677 6.41312C5.87537 6.76077 6.13708 6.04593 6.14099 5.79202C6.03943 5.85062 5.93787 5.90921 5.8324 5.95609C6.07849 6.08109 5.86365 6.2139 5.59802 6.41312C5.05896 7.08499 6.10193 5.88968 5.81677 6.41312ZM12.5004 2.06155C6.97693 2.06155 2.50037 6.53812 2.50037 12.0616C2.50037 17.5811 6.97693 22.0616 12.5004 22.0616C18.0238 22.0616 22.5004 17.5811 22.5004 12.0616C22.5004 6.53812 18.0238 2.06155 12.5004 2.06155ZM12.766 5.41312L12.8129 5.42874C12.6254 5.67093 13.7894 6.37796 12.9535 6.43655C12.1722 6.65921 13.2816 6.23343 12.6761 6.30765C12.9965 5.86234 12.4222 5.85452 12.766 5.41312ZM8.0238 6.05374C7.74255 5.81937 6.85974 6.37405 7.16833 6.24124C7.93396 5.94046 7.21912 6.27249 7.3988 6.63187C7.23474 6.97171 7.34412 6.29593 6.93787 6.69827C6.6449 6.76468 5.92615 7.42874 6.01599 7.22562C5.99255 7.54202 5.16052 7.91702 5.04724 8.44437C4.7738 9.17484 4.98083 8.41702 4.93005 8.13187C4.53943 7.63577 3.82849 8.97171 4.03943 9.49905C4.3949 8.87405 4.36755 9.43265 4.10974 9.70999C4.37146 10.1905 3.87146 10.8155 4.36755 11.1709C4.5863 11.2217 5.0238 10.4366 4.8324 11.253C4.96521 10.5459 5.19959 11.4209 5.57849 11.2256C5.60193 11.5967 5.8324 11.4248 5.88318 11.8741C6.51599 11.8272 7.09412 12.8975 6.34021 13.1006C6.45349 13.0694 6.67615 13.2686 6.93396 13.1162C7.37146 13.4639 8.5238 13.5069 8.55505 14.3662C7.76208 14.7451 8.35974 15.7842 7.67224 16.1553C6.88318 16.0381 7.40271 17.128 7.07068 17.003C7.20349 17.7881 6.2738 16.9014 6.63318 17.335C7.29333 17.7412 6.34412 17.6592 6.64099 17.9561C6.30896 17.8858 6.84802 18.5733 6.93787 18.8272C7.41443 19.6006 6.52771 18.6553 6.26599 18.3975C6.01599 17.8975 5.42615 16.9405 5.26208 16.1553C5.16833 15.0147 4.28552 14.2491 4.0824 13.1358C3.87927 12.5147 4.64099 11.5186 4.23083 11.1709C3.87537 10.8936 4.0199 9.94437 3.80896 9.44437C4.3363 7.15921 6.01208 5.23343 8.0238 4.0928C7.81677 4.24515 9.2074 3.69827 9.04724 3.83109C9.00427 3.92874 9.85974 3.45999 10.3754 3.38968C10.3207 3.39749 9.03552 3.85843 9.39099 3.79593C8.84021 4.06546 9.3363 3.91312 9.60974 3.7764C9.06287 4.17874 8.64099 4.06546 8.0199 4.42093C7.3949 4.58499 7.5238 5.23343 7.07849 5.55765C7.34021 5.60452 7.99646 4.88187 8.37927 4.62796C9.25818 4.20218 7.93396 5.4014 8.7699 4.88577C8.48865 5.14749 8.54724 5.56546 8.37537 5.68265C8.28943 5.65921 8.71521 5.88577 8.0238 6.05374ZM9.39099 4.25687C9.30115 4.37796 9.17615 4.63968 9.10193 4.47952C9.00037 4.5303 8.9613 4.74905 8.7699 4.57327C8.88318 4.49124 9.00037 4.29593 8.77771 4.41702C8.87927 4.30765 9.78552 3.99905 9.73474 3.88187C9.8949 3.7803 9.87927 3.72952 9.69568 3.79202C9.60193 3.76077 9.91833 3.49515 10.3402 3.45999C10.3988 3.45999 10.4222 3.49905 10.3168 3.48734C9.68005 3.68265 9.95349 3.62796 10.3832 3.48734C10.2191 3.58109 10.1058 3.60843 10.0785 3.6514C10.5082 3.49515 10.0551 3.76468 10.1527 3.74515C10.0316 3.80765 10.1722 3.82718 9.93787 3.91702C9.98083 3.88187 9.55505 4.17093 9.80896 4.08499C9.56287 4.31937 9.45349 4.32327 9.39099 4.25687ZM9.76599 4.81546C9.7738 4.44046 10.3129 4.20218 10.2465 4.18265C10.9105 3.87015 10.016 4.19437 10.5394 3.91312C10.7347 3.89359 11.1488 3.26859 11.723 3.22952C12.3558 3.03812 12.0629 3.24124 12.5316 3.06155L12.4379 3.13968C12.3558 3.1514 12.4574 3.29593 12.1605 3.51468C12.1293 3.85452 11.5941 3.69827 11.8597 4.06155C11.6879 3.81546 11.4301 4.05374 11.7543 4.07718C11.4066 4.3428 10.598 4.38968 10.2113 4.83109C9.9613 5.19046 9.73083 5.07718 9.76599 4.81546ZM12.5433 6.06546C12.2777 6.70609 12.0199 5.97171 12.4886 5.85452C12.6058 5.91702 12.6527 5.93655 12.5433 6.06546ZM11.5433 4.78421C11.4652 4.49515 11.5277 4.64749 11.9926 4.51077C12.3129 4.74124 11.7074 4.89358 11.5433 4.78421ZM18.8168 16.2491C18.4496 15.6162 19.2621 15.0303 19.5355 14.4991C19.5004 15.1201 19.4222 15.7334 18.8168 16.2491ZM20.1996 9.01859C19.8011 9.04984 19.4418 9.14359 19.0824 8.91702C18.2543 8.01077 19.2347 9.94046 19.5082 9.1514C20.4926 9.5264 19.4926 11.1436 18.8715 10.9756C18.5238 10.2256 18.0941 9.4014 17.3363 9.03421C17.9183 9.67874 18.2074 10.4717 18.8324 11.0537C18.8754 11.8662 19.6996 10.7569 19.6488 11.3858C19.7269 12.4678 18.4261 13.1162 18.6527 14.2022C19.1371 15.1905 17.7191 15.3701 17.8793 16.2569C17.309 16.8936 16.6996 17.753 15.6761 17.6162C15.6761 17.0772 15.4027 16.6201 15.3402 16.0655C14.7855 15.3623 15.9261 14.6084 15.2191 13.8741C14.4027 13.6905 15.3871 12.5655 14.5472 12.6709C14.0433 12.167 13.3051 12.6553 12.5824 12.6592C11.6761 12.7451 10.7426 11.5459 11.1449 10.6983C10.8246 9.81546 12.1605 9.55765 12.1957 8.7803C12.8363 8.24515 13.7465 8.31155 14.6136 8.18655C14.5511 8.80765 15.2074 8.81155 15.7035 9.01859C15.9808 8.34671 16.8441 9.12796 17.434 8.70218C17.6371 7.70999 16.8597 8.30765 16.4144 7.99124C15.8754 7.20218 17.5668 7.58499 17.391 7.17093C16.7347 7.16702 17.1058 6.36234 16.641 6.81155C17.059 6.88577 16.5668 7.2139 16.5785 6.8389C15.9457 6.6553 16.5551 7.55765 16.2347 7.64359C15.7465 7.44046 15.9769 7.87405 16.0277 7.94046C15.8168 8.39749 15.559 7.26859 14.9613 7.29984C14.3676 6.75687 14.7269 7.54593 15.2426 7.67484C15.1332 7.70609 15.3051 8.1553 15.1683 7.9639C14.7426 7.37796 13.934 6.98734 13.4535 7.70609C13.4027 8.37796 12.0355 8.56937 12.2543 7.78421C11.934 6.97171 13.2465 7.76077 13.1254 7.11234C12.2816 6.55374 13.3558 6.73343 13.641 6.20999C14.2894 6.22952 13.6683 5.67874 13.973 5.51859C13.9418 6.11624 14.4691 6.00296 14.8871 5.88968C14.7855 5.54593 15.1371 5.55765 14.9222 5.27249C15.891 4.88577 14.184 5.45218 14.5277 4.60452C14.1097 4.31546 14.3519 5.24124 14.5277 5.3389C14.5394 5.62405 14.2972 5.97562 13.9652 5.37796C13.4808 5.69437 13.5316 5.05765 13.5004 5.12405C13.4457 4.87796 13.8676 4.86624 13.8715 4.43655C13.8363 4.16312 13.8441 4.01859 14.0394 4.00296C14.0551 4.04202 14.8402 4.05374 15.1176 4.37796C14.3597 4.22562 15.0043 4.50296 15.3441 4.65921C14.9808 4.37405 15.4886 4.65921 15.1918 4.33499C15.309 4.35843 14.8676 3.88968 15.3207 4.29984C15.0746 4.00687 15.8011 4.0928 15.3715 3.87405C16.0004 4.04984 15.6293 3.88968 15.2582 3.72952C14.2347 3.12015 17.0668 4.55374 15.9105 3.91702C16.6488 4.07718 14.3324 3.34671 15.3871 3.66702C14.9847 3.49124 15.3754 3.5889 15.7386 3.70218C15.0863 3.49905 14.1097 3.12015 14.1488 3.10452C14.3754 3.12015 14.598 3.17093 14.8129 3.23343C15.4808 3.43265 14.6215 3.18655 14.8051 3.19046C17.1019 3.7803 19.1136 5.31937 20.3363 7.33109C20.6215 7.63187 21.3988 9.62015 20.9926 8.73734C21.1761 9.44046 21.2035 10.1983 21.3011 10.917C21.098 10.6905 20.8715 9.85452 20.6761 9.38968C20.5941 9.56937 20.5004 9.13577 20.1996 9.01859Z" fill="#C2C2C2"/>
</svg>
