<svg width="25" height="25" viewBox="0 0 25 25" fill="none" xmlns="http://www.w3.org/2000/svg">
<path d="M3.00037 20.0616C4.00037 20.0616 5.00037 19.2616 5.00037 18.0616V11.0616C5.00037 7.56155 8.10037 4.06155 12.5004 4.06155C16.9004 4.06155 20.0004 7.56155 20.0004 11.0616V18.0616C20.0004 19.2616 21.0004 20.0616 22.0004 20.0616" stroke="#C2C2C2" stroke-width="1.5" stroke-linecap="round"/>
<path d="M12.5004 19.0616C15.2614 19.0616 17.5004 17.9416 17.5004 16.5616C17.5004 15.1816 15.2614 14.0616 12.5004 14.0616C9.73937 14.0616 7.50037 15.1816 7.50037 16.5616C7.50037 17.9416 9.73937 19.0616 12.5004 19.0616Z" stroke="#C2C2C2" stroke-width="1.5" stroke-linecap="round" stroke-linejoin="round"/>
<path d="M8.25037 15.0616C7.78737 14.4266 7.50037 13.5416 7.50037 12.5616C7.50037 10.6286 8.62037 9.06155 10.0004 9.06155C11.3804 9.06155 12.5004 10.6286 12.5004 12.5616M12.5004 12.5616C12.5004 13.0166 12.4384 13.4516 12.3254 13.8516M12.5004 12.5616C12.5004 10.6286 13.6204 9.06155 15.0004 9.06155C16.3804 9.06155 17.5004 10.6286 17.5004 12.5616C17.5004 13.5416 17.2134 14.4266 16.7504 15.0616M12.5004 12.5616C12.5004 13.0166 12.5624 13.4516 12.6754 13.8516M10.0004 12.0616V14.0616M15.0004 12.0616V14.0616" stroke="#C2C2C2" stroke-width="1.5" stroke-linecap="round" stroke-linejoin="round"/>
</svg>
