<svg width="25" height="25" viewBox="0 0 25 25" fill="none" xmlns="http://www.w3.org/2000/svg">
<path d="M4.50037 12.0616H20.5004M11.0004 5.56156V18.5616M4.50037 17.0476V7.07556C4.50031 6.9325 4.55136 6.79414 4.64432 6.6854C4.73729 6.57667 4.86604 6.50473 5.00737 6.48256L19.8074 4.16956C19.893 4.15612 19.9805 4.1614 20.0639 4.18503C20.1473 4.20866 20.2246 4.25007 20.2905 4.30643C20.3563 4.36278 20.4092 4.43274 20.4454 4.51148C20.4817 4.59022 20.5004 4.67588 20.5004 4.76256V19.3606C20.5004 19.4472 20.4817 19.5329 20.4454 19.6116C20.4092 19.6904 20.3563 19.7603 20.2905 19.8167C20.2246 19.873 20.1473 19.9145 20.0639 19.9381C19.9805 19.9617 19.893 19.967 19.8074 19.9536L5.00737 17.6406C4.86604 17.6184 4.73729 17.5464 4.64432 17.4377C4.55136 17.329 4.50031 17.1906 4.50037 17.0476Z" stroke="#C2C2C2" stroke-width="1.5"/>
</svg>
