<svg width="25" height="25" viewBox="0 0 25 25" fill="none" xmlns="http://www.w3.org/2000/svg">
<g clip-path="url(#clip0_238_18)">
<path d="M2.71869 15.8133L6.46816 18.313L2.71869 20.8122V15.8133ZM20.8936 18.887L15.8426 13.8341L10.7917 18.887C10.6396 19.0393 10.4331 19.1248 10.2176 19.1244C10.0023 19.1248 9.79575 19.0393 9.64358 18.887C9.49093 18.7345 9.40507 18.5279 9.40507 18.3121C9.40507 18.0963 9.49093 17.8898 9.64358 17.7372L14.6946 12.686L9.64358 7.63491C9.49093 7.48268 9.40507 7.27631 9.40507 7.06087C9.40507 6.84525 9.49093 6.63869 9.64358 6.48683C9.79575 6.33461 10.0023 6.24862 10.2176 6.24862C10.4331 6.24862 10.6396 6.33461 10.7917 6.48683L15.8426 11.5359L20.8936 6.48683C21.046 6.33418 21.2527 6.24862 21.4683 6.24862C21.6838 6.24862 21.8904 6.33418 22.0429 6.48683C22.1957 6.63869 22.2817 6.84525 22.2817 7.06087C22.2817 7.27631 22.1957 7.48268 22.0429 7.63491L16.9919 12.686L22.0429 17.7372C22.1955 17.8894 22.2814 18.0963 22.2814 18.3121C22.2814 18.5279 22.1955 18.7348 22.0429 18.887C21.8901 19.0387 21.6834 19.1242 21.4677 19.1244C21.2527 19.1242 21.046 19.0387 20.8936 18.887ZM2.71869 9.56211L6.46816 12.0625L2.71869 14.5604V9.56211ZM2.71869 3.31155L6.46816 5.81249L2.71869 8.31224V3.31155Z" fill="#C2C2C2"/>
</g>
<defs>
<clipPath id="clip0_238_18">
<rect width="20" height="17.5" fill="white" transform="translate(2.50037 3.31155)"/>
</clipPath>
</defs>
</svg>
