<svg width="25" height="25" viewBox="0 0 25 25" fill="none" xmlns="http://www.w3.org/2000/svg">
<g clip-path="url(#clip0_43_2)">
<path d="M1.50037 18.0616V4.06155C1.50037 3.53112 1.71108 3.02241 2.08615 2.64734C2.46123 2.27227 2.96993 2.06155 3.50037 2.06155H19.5004C20.0308 2.06155 20.5395 2.27227 20.9146 2.64734C21.2897 3.02241 21.5004 3.53112 21.5004 4.06155V18.0616C21.5004 18.592 21.2897 19.1007 20.9146 19.4758C20.5395 19.8508 20.0308 20.0616 19.5004 20.0616H3.50037C2.96993 20.0616 2.46123 19.8508 2.08615 19.4758C1.71108 19.1007 1.50037 18.592 1.50037 18.0616Z" stroke="#C2C2C2" stroke-width="1.5"/>
<path d="M1.50037 6.06155H21.5004M8.50037 13.0616H11.5004M11.5004 13.0616H14.5004M11.5004 13.0616V10.0616M11.5004 13.0616V16.0616" stroke="#C2C2C2" stroke-width="1.5" stroke-linecap="round" stroke-linejoin="round"/>
</g>
<defs>
<clipPath id="clip0_43_2">
<rect width="24" height="24" fill="white" transform="translate(0.500366 0.061554)"/>
</clipPath>
</defs>
</svg>
